<svg xmlns="http://www.w3.org/2000/svg" viewBox="0 0 32 32">
  <rect width="32" height="32" fill="#A4D171" rx="4"/>
  <g transform="translate(4,4) scale(0.1)">
    <g opacity="0.3">
      <path fill="#ffffff" d="M224.75,161.47l-11.63,8.15a12,12,0,0,1-3.51,15.83l-73.19,51.23a36,36,0,0,1-41.31,0L21.93,185.45a12,12,0,0,1-3.51-15.84L6.78,161.47c-.72-.51-1.42-1.05-2.11-1.6a28.82,28.82,0,0,0,7.62,39.35l73.19,51.23a52.81,52.81,0,0,0,60.58,0l73.18-51.23a28.82,28.82,0,0,0,7.62-39.35C226.18,160.43,225.48,161,224.75,161.47Z"/>
    </g>
    <path fill="#ffffff" opacity="0.7" d="M224.75,115.85,213.12,124a12,12,0,0,1-3.51,15.83l-73.19,51.24a36,36,0,0,1-41.31,0L21.93,139.83A12,12,0,0,1,18.42,124L6.78,115.85c-.72-.51-1.42-1-2.11-1.6a28.82,28.82,0,0,0,7.62,39.35l73.19,51.23a52.81,52.81,0,0,0,60.58,0l73.18-51.23a28.82,28.82,0,0,0,7.62-39.35C226.18,114.81,225.48,115.34,224.75,115.85Z"/>
    <path fill="#ffffff" d="M115.77,16.81a35.83,35.83,0,0,1,20.65,6.51l73.19,51.23a12,12,0,0,1,0,19.67l-73.19,51.23a36,36,0,0,1-41.31,0L21.93,94.22a12,12,0,0,1,0-19.67L95.11,23.32a35.86,35.86,0,0,1,20.66-6.51m0-16.81A52.71,52.71,0,0,0,85.48,9.55L12.29,60.78a28.81,28.81,0,0,0,0,47.21l73.19,51.23a52.86,52.86,0,0,0,60.58,0L219.24,108a28.81,28.81,0,0,0,0-47.21L146.06,9.55A52.74,52.74,0,0,0,115.77,0Z"/>
    <path fill="#2E3331" d="M115.77,65.92a59,59,0,0,1,34,10.73L171.69,92,186,82l-26.8-18.76a75.72,75.72,0,0,0-86.84,0L45.54,82,59.85,92,81.76,76.64A59,59,0,0,1,115.77,65.92Z"/>
    <path fill="#2E3331" d="M115.77,82.33a42.68,42.68,0,0,0-24.6,7.75L74.15,102l14.3,10,12.12-8.49a26.51,26.51,0,0,1,30.4,0L143.08,112l14.31-10-17-11.91A42.68,42.68,0,0,0,115.77,82.33Z"/>
    <path fill="#2E3331" d="M102.75,122l13,9.11,13-9.11L121.56,117A10.11,10.11,0,0,0,110,117Z"/>
  </g>
</svg>